HIERARCHY
ROOT Hips
{
    OFFSET 0.000000 0.000000 0.000000
    CHANNELS 6 Xposition Yposition Zposition Zrotation Xrotation Yrotation
    JOINT Spine
    {
        OFFSET -0.000000 7.236184 0.000000
        CHANNELS 3 Zrotation Xrotation Yrotation
        JOINT Spine1
        {
            OFFSET -0.000000 20.420147 0.000000
            CHANNELS 3 Zrotation Xrotation Yrotation
            JOINT Neck
            {
                OFFSET -0.000000 20.336288 1.848754
                CHANNELS 3 Zrotation Xrotation Yrotation
                JOINT Head
                {
                    OFFSET -0.000000 12.354461 -1.764923
                    CHANNELS 3 Zrotation Xrotation Yrotation
                    End Site
                    {
                        OFFSET -0.000000 22.061537 0.000000
                    }
                }
            }
            JOINT LeftShoulder
            {
                OFFSET 3.573296 18.396038 -0.314103
                CHANNELS 3 Zrotation Xrotation Yrotation
                JOINT LeftArm
                {
                    OFFSET 10.880760 0.000000 0.000000
                    CHANNELS 3 Zrotation Xrotation Yrotation
                    JOINT LeftForeArm
                    {
                        OFFSET 27.185530 0.000000 0.000000
                        CHANNELS 3 Zrotation Xrotation Yrotation
                        JOINT LeftHand
                        {
                            OFFSET 27.825975 0.000000 0.000000
                            CHANNELS 3 Zrotation Xrotation Yrotation
                            End Site
                            {
                                OFFSET 13.236923 0.000000 0.000000
                            }
                        }
                    }
                }
            }
            JOINT RightShoulder
            {
                OFFSET -3.474926 18.396038 -0.314103
                CHANNELS 3 Zrotation Xrotation Yrotation
                JOINT RightArm
                {
                    OFFSET -10.880760 0.000000 0.000000
                    CHANNELS 3 Zrotation Xrotation Yrotation
                    JOINT RightForeArm
                    {
                        OFFSET -27.185530 0.000000 0.000000
                        CHANNELS 3 Zrotation Xrotation Yrotation
                        JOINT RightHand
                        {
                            OFFSET -27.825975 0.000000 0.000000
                            CHANNELS 3 Zrotation Xrotation Yrotation
                            End Site
                            {
                                OFFSET -13.236923 0.000000 0.000000
                            }
                        }
                    }
                }
            }
        }
    }
    JOINT LeftUpLeg
    {
        OFFSET 8.824615 0.000000 0.000000
        CHANNELS 3 Zrotation Xrotation Yrotation
        JOINT LeftLeg
        {
            OFFSET -0.000000 -35.111282 0.000000
            CHANNELS 3 Zrotation Xrotation Yrotation
            JOINT LeftFoot
            {
                OFFSET -0.000000 -42.324711 0.000000
                CHANNELS 3 Zrotation Xrotation Yrotation
                JOINT LeftToeBase
                {
                    OFFSET -0.000000 -5.735999 13.236923
                    CHANNELS 3 Zrotation Xrotation Yrotation
                    End Site
                    {
                        OFFSET -0.000000 0.000000 3.529846
                    }
                }
            }
        }
    }
    JOINT RightUpLeg
    {
        OFFSET -8.824615 0.000000 0.000000
        CHANNELS 3 Zrotation Xrotation Yrotation
        JOINT RightLeg
        {
            OFFSET -0.000000 -35.111282 0.000000
            CHANNELS 3 Zrotation Xrotation Yrotation
            JOINT RightFoot
            {
                OFFSET -0.000000 -42.324711 0.000000
                CHANNELS 3 Zrotation Xrotation Yrotation
                JOINT RightToeBase
                {
                    OFFSET -0.000000 -5.735999 13.236923
                    CHANNELS 3 Zrotation Xrotation Yrotation
                    End Site
                    {
                        OFFSET -0.000000 0.000000 3.529846
                    }
                }
            }
        }
    }
}
MOTION
Frames:    8
Frame Time:    0.008333
-15.366253    81.136063    109.270981    -2.526563    -15.524312    151.616776    -0.168653    -3.095228    -1.552978    6.337621    4.088700    -1.774858    6.383934    3.594465    8.707913    -3.635372    -10.044172    7.489868    -1.050085    13.259146    0.092927    -49.707680    19.959648    -24.161108    6.013247    -0.489273    -13.982860    19.129158    0.204782    -0.263195    9.008903    15.373954    -7.874259    45.325268    30.693674    25.263868    -3.275608    -15.104632    25.149546    -23.236155    -14.341635    -0.282130    10.220570    -34.454811    6.785251    -7.076824    39.221592    24.773312    -0.956906    -15.919844    -13.338955    -0.559593    -2.524227    0.623177    -80.728188    -73.338104    -73.561455    95.278198    81.139069    -77.760284    17.597694    5.992522    0.960376    1.289512    -5.491799    -1.405768
-15.442801    80.920372    109.316887    -2.422857    -15.581549    151.410202    0.054344    -2.993850    -1.551104    6.324125    4.315895    -1.791040    6.391549    3.441594    8.805604    -3.764966    -10.339907    7.543052    -1.164034    13.053125    -0.119703    -49.510941    19.318493    -24.224291    6.316170    -0.340818    -14.151364    19.444532    0.368405    -0.441625    9.120818    15.295791    -7.758553    45.168865    30.728106    24.976381    -3.170200    -14.885795    24.752058    -23.186747    -14.199437    -0.064546    10.534431    -34.876247    7.194696    -7.112335    40.015743    24.658241    -0.833926    -16.198250    -13.165234    -0.612273    -2.567654    0.681898    -88.542007    -73.352592    -81.441933    110.395386    80.642281    -92.317055    17.260212    5.695104    0.802175    1.286358    -5.493148    -1.402333
-15.504554    80.724991    109.354385    -2.304525    -15.645231    151.248077    0.289881    -2.909881    -1.558656    6.305596    4.529878    -1.815709    6.393206    3.285308    8.886131    -3.887624    -10.609425    7.580700    -1.279628    12.856622    -0.333821    -49.303230    18.754433    -24.298941    6.613018    -0.186326    -14.344762    19.711498    0.537486    -0.629378    9.235530    15.222487    -7.642640    45.027504    30.774784    24.676064    -3.048790    -14.626113    24.337479    -23.110588    -14.022202    0.167886    10.839905    -35.258801    7.573751    -7.120883    40.742931    24.521324    -0.705447    -16.460865    -12.993558    -0.659659    -2.609749    0.734732    -95.837914    -73.049553    -88.779892    122.315567    79.632439    -103.690262    16.927006    5.415237    0.611366    1.281242    -5.495978    -1.396762
-15.548104    80.566849    109.380630    -2.181939    -15.704593    151.132645    0.518192    -2.847502    -1.573693    6.282872    4.718124    -1.845697    6.389531    3.139334    8.946962    -3.995092    -10.827503    7.603813    -1.387972    12.683994    -0.533694    -49.093479    18.315908    -24.382711    6.878795    -0.037991    -14.545594    19.904608    0.698130    -0.814244    9.344221    15.159782    -7.534675    44.912125    30.829216    24.385853    -2.921123    -14.346137    23.935028    -23.014656    -13.824013    0.398016    11.110341    -35.563690    7.891621    -7.106045    41.340580    24.380247    -0.590958    -16.688374    -12.840519    -0.701346    -2.640088    0.781208    -101.881828    -72.539673    -94.841019    130.468491    78.438271    -111.347511    16.618580    5.167772    0.400547    1.274667    -5.499281    -1.389600
-15.576935    80.441933    109.397034    -2.055006    -15.755408    151.047119    0.741189    -2.801867    -1.594454    6.256049    4.889128    -1.879901    6.381382    3.001981    8.994384    -4.090820    -10.995593    7.618139    -1.491262    12.529147    -0.725527    -48.873463    17.986916    -24.478933    7.119603    0.107883    -14.753260    20.033482    0.853899    -1.001730    9.448609    15.106059    -7.430793    44.817226    30.895609    24.099798    -2.786305    -14.043895    23.531096    -22.898342    -13.604328    0.631088    11.351094    -35.794075    8.158994    -7.074008    41.824631    24.239790    -0.497429    -16.888969    -12.706415    -0.743124    -2.652205    0.827761    -106.870613    -71.909843    -99.830154    136.147079    77.203514    -116.568352    16.323328    4.941771    0.165829    1.266792    -5.503349    -1.381025
-15.591531    80.355011    109.403572    -1.930439    -15.791653    150.982422    0.947695    -2.772544    -1.618764    6.226934    5.039117    -1.915949    6.369933    2.880914    9.030560    -4.171673    -11.103330    7.627478    -1.584554    12.395675    -0.904006    -48.650330    17.774378    -24.585468    7.328187    0.247609    -14.955832    20.099064    1.000784    -1.185191    9.543355    15.063500    -7.332382    44.743652    30.977444    23.828304    -2.650327    -13.733132    23.134354    -22.764139    -13.373732    0.858755    11.553332    -35.938236    8.370490    -7.029643    42.178974    24.110456    -0.429777    -17.055595    -12.596628    -0.786066    -2.645656    0.875583    -110.762886    -71.258377    -103.712303    139.997284    76.055328    -120.014282    16.047697    4.740276    -0.084480    1.257877    -5.506647    -1.371312
-15.593009    80.307106    109.400986    -1.812592    -15.810471    150.927963    1.131192    -2.758651    -1.645149    6.197339    5.166822    -1.952252    6.356705    2.778999    9.058390    -4.236564    -11.143559    7.635536    -1.664937    12.283823    -1.065775    -48.429852    17.673468    -24.702158    7.503871    0.381656    -15.145818    20.107143    1.139521    -1.360339    9.625137    15.032750    -7.240205    44.688324    31.082169    23.577234    -2.516134    -13.422525    22.746243    -22.611809    -13.139265    1.076271    11.715114    -35.994217    8.529168    -6.975879    42.402756    23.998276    -0.383082    -17.184072    -12.509221    -0.828898    -2.627719    0.923261    -113.685104    -70.656303    -106.621864    142.575775    75.051300    -122.249863    15.793560    4.562822    -0.344142    1.248103    -5.508587    -1.360662
-15.582410    80.299286    109.390244    -1.708228    -15.810289    150.875793    1.280954    -2.759764    -1.671639    6.170976    5.267303    -1.986626    6.343388    2.701432    9.079376    -4.283269    -11.111581    7.644760    -1.727358    12.196224    -1.203816    -48.226547    17.676470    -24.825497    7.643435    0.508497    -15.312096    20.063780    1.268768    -1.518583    9.689008    15.014970    -7.158453    44.648396    31.214237    23.358709    -2.389374    -13.127233    22.378557    -22.444361    -12.912878    1.273689    11.832435    -35.961773    8.635325    -6.916816    42.492500    23.910740    -0.352149    -17.267683    -12.442703    -0.868265    -2.606359    0.967070    -115.707565    -70.170174    -108.638474    144.194565    74.246483    -123.603561    15.570304    4.414560    -0.598754    1.237381    -5.508653    -1.348972
